# xmcd
#
# Track frame offsets:
#  150
#  15679
#  30615
#  44259
#  57787
#  71577
#  86634
#  106200
#  118241
#  131645
#  143225
#  162425
#  166889
#  188212
#  201853
#  217572
#  229960
#  241536
#  252210
#  268870
#  287672
#  306157
#  326497
#
# Disc length: 4519 seconds
#
# Revision: 0
# Processed by: cddbd v1.5.1PL0 Copyright (c) Steve Scherf et al.
# Submitted via: Collectorz.com Music Collector 6.9
#
DISCID=4611a517
DTITLE=Various Artist - Honky Tonk 3
DYEAR=1900
DGENRE=
TTITLE0=David Mallett - Here in the City You Live in
TTITLE1=David Mallett - Wild in the Sixties
TTITLE2=David Mallett - Ambition
TTITLE3=Damon Bramblet - Tear Him Down
TTITLE4=Damon Bramblet - Falling Apart
TTITLE5=Damon Bramblet - Nobody Wants To Go To the Moon Anymore
TTITLE6=Damon Bramblet - Champaign, Il
TTITLE7=Damon Bramblet - Devil on Your Side
TTITLE8=Damon Bramblet - Wouldn't Have It Any Other Way
TTITLE9=Dan Bern - Shakespear's Got a Gun
TTITLE10=Dan Bern - Talkin' Alien Abduction Blues
TTITLE11=Waylon Jennings - Dukes of Hazzard Theme
TTITLE12=Waylon Jennings and Willie Nelson - Poncho and Lefty
TTITLE13=Willie Nelson - My Heroes Have Always Been Cowboys
TTITLE14=Garth Brooks - American Bar Association
TTITLE15=Joe Ely and Todd Snider - Oh Boy!
TTITLE16=Johnny Paycheck - Take This Job And Shove It
TTITLE17=Johnny Cash - Cry Cry Cry
TTITLE18=Lyle Lovett - Don't Touch My Hat
TTITLE19=Lyle Lovett - Friend of the Devil
TTITLE20=Lyle Lovett - Fiona
TTITLE21=Lyle Lovett and Al Green - Funny How Time Slips Away
TTITLE22=Billy Ray Cyrus - These Boots Are Made For Walkin'
EXTD=
EXTT0=
EXTT1=
EXTT2=
EXTT3=
EXTT4=
EXTT5=
EXTT6=
EXTT7=
EXTT8=
EXTT9=
EXTT10=
EXTT11=
EXTT12=
EXTT13=
EXTT14=
EXTT15=
EXTT16=
EXTT17=
EXTT18=
EXTT19=
EXTT20=
EXTT21=
EXTT22=
PLAYORDER=
